<svg xmlns="http://www.w3.org/2000/svg" width="600" height="470" fill="none" viewBox="0 0 600 470"><g filter="url(#filter0_d_2_17480)"><g filter="url(#filter1_d_2_17480)"><rect width="425" height="312" x="88.738" y="80" fill="#fff" rx="10"/></g><circle cx="107.696" cy="99.031" r="4.564" fill="#D9D9D9"/><circle cx="126.294" cy="99.031" r="4.564" fill="#D9D9D9"/><circle cx="144.892" cy="99.031" r="4.564" fill="#D9D9D9"/><path fill="#101820" d="M513.634 117.412H301.145V392.456H503.301C509.007 392.456 513.634 387.829 513.634 382.123V117.412Z"/><path fill="#01ADE2" stroke="#000" stroke-miterlimit="10" stroke-width=".043" d="M423.146 151.111H335.574V166.625H423.146V151.111Z"/><path fill="#3D4B58" d="M479.191 151.111H450V166.625H479.191V151.111Z" opacity=".5"/><path fill="#3D4B58" d="M402.128 180.783H335.574V196.297H402.128V180.783Z" opacity=".5"/><path fill="#3D4B58" d="M479.188 180.783H423.145V196.297H479.188V180.783Z" opacity=".5"/><path fill="#3D4B58" d="M376.346 210.457H335.574V225.97H376.346V210.457Z" opacity=".5"/><path fill="#54A09E" d="M479.184 210.457H402.121V225.97H479.184V210.457Z"/><path fill="#3D4B58" d="M394.817 268.383H335.574V283.896H394.817V268.383Z" opacity=".5"/><path fill="#3D4B58" d="M479.188 268.383H423.145V283.896H479.188V268.383Z" opacity=".5"/><path fill="#A4C46A" d="M382.251 298.041H335.574V313.554H382.251V298.041Z"/><path fill="#3D4B58" d="M479.186 298.041H394.812V313.554H479.186V298.041Z" opacity=".5"/><path fill="#3D4B58" d="M423.146 327.713H335.574V343.226H423.146V327.713Z" opacity=".5"/><path fill="#01ADE2" d="M479.194 327.713H454.027V343.226H479.194V327.713Z"/><path stroke="#54A09E" stroke-dasharray=".17 3.1" stroke-linecap="round" stroke-miterlimit="10" stroke-width="1.55" d="M169.094 209.824H187.441"/><path stroke="#54A09E" stroke-dasharray=".17 3.1" stroke-linecap="round" stroke-miterlimit="10" stroke-width="1.55" d="M169.094 250.936H272.746"/><path stroke="#54A09E" stroke-dasharray=".17 3.1" stroke-linecap="round" stroke-miterlimit="10" stroke-width="1.55" d="M169.094 186.125H272.746"/><path stroke="#54A09E" stroke-dasharray=".17 3.1" stroke-linecap="round" stroke-miterlimit="10" stroke-width="1.55" d="M169.094 161.318H272.746"/><path stroke="#54A09E" stroke-dasharray=".17 3.1" stroke-linecap="round" stroke-miterlimit="10" stroke-width="1.55" d="M169.086 275.807H229.189"/><path stroke="#54A09E" stroke-dasharray=".17 3.1" stroke-linecap="round" stroke-miterlimit="10" stroke-width="1.55" d="M169.094 300.549H272.746"/><path stroke="#54A09E" stroke-dasharray=".17 3.1" stroke-linecap="round" stroke-miterlimit="10" stroke-width="1.55" d="M169.086 328.506H242.105"/><path stroke="#54A09E" stroke-dasharray=".17 3.1" stroke-linecap="round" stroke-miterlimit="10" stroke-width="1.55" d="M169.086 357.264H272.759"/><path stroke="#101820" stroke-miterlimit="10" stroke-width=".344" d="M88.7383 178H149.738"/><path stroke="#101820" stroke-miterlimit="10" stroke-width=".344" d="M149.738 392.396L149.738 117.371"/><path stroke="#D9D9D9" stroke-miterlimit="10" stroke-width=".344" d="M86 117.256H513.737"/></g><defs><filter id="filter0_d_2_17480" width="453.738" height="338.456" x="74" y="70" color-interpolation-filters="sRGB" filterUnits="userSpaceOnUse"><feFlood flood-opacity="0" result="BackgroundImageFix"/><feColorMatrix in="SourceAlpha" result="hardAlpha" type="matrix" values="0 0 0 0 0 0 0 0 0 0 0 0 0 0 0 0 0 0 127 0"/><feOffset dx="1" dy="3"/><feGaussianBlur stdDeviation="6.5"/><feComposite in2="hardAlpha" operator="out"/><feColorMatrix type="matrix" values="0 0 0 0 0.0627451 0 0 0 0 0.0941176 0 0 0 0 0.12549 0 0 0 0.06 0"/><feBlend in2="BackgroundImageFix" mode="normal" result="effect1_dropShadow_2_17480"/><feBlend in="SourceGraphic" in2="effect1_dropShadow_2_17480" mode="normal" result="shape"/></filter><filter id="filter1_d_2_17480" width="464.609" height="351.609" x="68.934" y="65.534" color-interpolation-filters="sRGB" filterUnits="userSpaceOnUse"><feFlood flood-opacity="0" result="BackgroundImageFix"/><feColorMatrix in="SourceAlpha" result="hardAlpha" type="matrix" values="0 0 0 0 0 0 0 0 0 0 0 0 0 0 0 0 0 0 127 0"/><feMorphology in="SourceAlpha" operator="dilate" radius=".861" result="effect1_dropShadow_2_17480"/><feOffset dy="5.339"/><feGaussianBlur stdDeviation="9.472"/><feComposite in2="hardAlpha" operator="out"/><feColorMatrix type="matrix" values="0 0 0 0 0.0627451 0 0 0 0 0.0941176 0 0 0 0 0.12549 0 0 0 0.09 0"/><feBlend in2="BackgroundImageFix" mode="normal" result="effect1_dropShadow_2_17480"/><feBlend in="SourceGraphic" in2="effect1_dropShadow_2_17480" mode="normal" result="shape"/></filter></defs></svg>