<?xml version="1.0" encoding="UTF-8"?> <svg xmlns="http://www.w3.org/2000/svg" width="600" height="470" viewBox="0 0 600 470" fill="none"><g filter="url(#filter0_d_2_17480)"><g filter="url(#filter1_d_2_17480)"><rect x="88.7383" y="80" width="425" height="312" rx="10" fill="white"></rect></g><circle cx="107.696" cy="99.0305" r="4.56367" fill="#D9D9D9"></circle><circle cx="126.294" cy="99.0305" r="4.56367" fill="#D9D9D9"></circle><circle cx="144.892" cy="99.0305" r="4.56367" fill="#D9D9D9"></circle><path d="M513.634 117.412H301.145V392.456H503.301C509.007 392.456 513.634 387.829 513.634 382.123V117.412Z" fill="#101820"></path><path d="M423.146 151.111H335.574V166.625H423.146V151.111Z" fill="#01ADE2" stroke="black" stroke-width="0.0430535" stroke-miterlimit="10"></path><path opacity="0.5" d="M479.191 151.111H450V166.625H479.191V151.111Z" fill="#3D4B58"></path><path opacity="0.5" d="M402.128 180.783H335.574V196.297H402.128V180.783Z" fill="#3D4B58"></path><path opacity="0.5" d="M479.188 180.783H423.145V196.297H479.188V180.783Z" fill="#3D4B58"></path><path opacity="0.5" d="M376.346 210.457H335.574V225.97H376.346V210.457Z" fill="#3D4B58"></path><path d="M479.184 210.457H402.121V225.97H479.184V210.457Z" fill="#54A09E"></path><path opacity="0.5" d="M394.817 268.383H335.574V283.896H394.817V268.383Z" fill="#3D4B58"></path><path opacity="0.5" d="M479.188 268.383H423.145V283.896H479.188V268.383Z" fill="#3D4B58"></path><path d="M382.251 298.041H335.574V313.554H382.251V298.041Z" fill="#A4C46A"></path><path opacity="0.5" d="M479.186 298.041H394.812V313.554H479.186V298.041Z" fill="#3D4B58"></path><path opacity="0.5" d="M423.146 327.713H335.574V343.226H423.146V327.713Z" fill="#3D4B58"></path><path d="M479.194 327.713H454.027V343.226H479.194V327.713Z" fill="#01ADE2"></path><path d="M169.094 209.824H187.441" stroke="#54A09E" stroke-width="1.54993" stroke-miterlimit="10" stroke-linecap="round" stroke-dasharray="0.17 3.1"></path><path d="M169.094 250.936H272.746" stroke="#54A09E" stroke-width="1.54993" stroke-miterlimit="10" stroke-linecap="round" stroke-dasharray="0.17 3.1"></path><path d="M169.094 186.125H272.746" stroke="#54A09E" stroke-width="1.54993" stroke-miterlimit="10" stroke-linecap="round" stroke-dasharray="0.17 3.1"></path><path d="M169.094 161.318H272.746" stroke="#54A09E" stroke-width="1.54993" stroke-miterlimit="10" stroke-linecap="round" stroke-dasharray="0.17 3.1"></path><path d="M169.086 275.807H229.189" stroke="#54A09E" stroke-width="1.54993" stroke-miterlimit="10" stroke-linecap="round" stroke-dasharray="0.17 3.1"></path><path d="M169.094 300.549H272.746" stroke="#54A09E" stroke-width="1.54993" stroke-miterlimit="10" stroke-linecap="round" stroke-dasharray="0.17 3.1"></path><path d="M169.086 328.506H242.105" stroke="#54A09E" stroke-width="1.54993" stroke-miterlimit="10" stroke-linecap="round" stroke-dasharray="0.17 3.1"></path><path d="M169.086 357.264H272.759" stroke="#54A09E" stroke-width="1.54993" stroke-miterlimit="10" stroke-linecap="round" stroke-dasharray="0.17 3.1"></path><path d="M88.7383 178H149.738" stroke="#101820" stroke-width="0.344428" stroke-miterlimit="10"></path><path d="M149.738 392.396L149.738 117.371" stroke="#101820" stroke-width="0.344428" stroke-miterlimit="10"></path><path d="M86 117.256H513.737" stroke="#D9D9D9" stroke-width="0.344428" stroke-miterlimit="10"></path></g><defs><filter id="filter0_d_2_17480" x="74" y="70" width="453.738" height="338.456" filterUnits="userSpaceOnUse" color-interpolation-filters="sRGB"><feFlood flood-opacity="0" result="BackgroundImageFix"></feFlood><feColorMatrix in="SourceAlpha" type="matrix" values="0 0 0 0 0 0 0 0 0 0 0 0 0 0 0 0 0 0 127 0" result="hardAlpha"></feColorMatrix><feOffset dx="1" dy="3"></feOffset><feGaussianBlur stdDeviation="6.5"></feGaussianBlur><feComposite in2="hardAlpha" operator="out"></feComposite><feColorMatrix type="matrix" values="0 0 0 0 0.0627451 0 0 0 0 0.0941176 0 0 0 0 0.12549 0 0 0 0.06 0"></feColorMatrix><feBlend mode="normal" in2="BackgroundImageFix" result="effect1_dropShadow_2_17480"></feBlend><feBlend mode="normal" in="SourceGraphic" in2="effect1_dropShadow_2_17480" result="shape"></feBlend></filter><filter id="filter1_d_2_17480" x="68.9337" y="65.534" width="464.609" height="351.609" filterUnits="userSpaceOnUse" color-interpolation-filters="sRGB"><feFlood flood-opacity="0" result="BackgroundImageFix"></feFlood><feColorMatrix in="SourceAlpha" type="matrix" values="0 0 0 0 0 0 0 0 0 0 0 0 0 0 0 0 0 0 127 0" result="hardAlpha"></feColorMatrix><feMorphology radius="0.86107" operator="dilate" in="SourceAlpha" result="effect1_dropShadow_2_17480"></feMorphology><feOffset dy="5.33863"></feOffset><feGaussianBlur stdDeviation="9.47177"></feGaussianBlur><feComposite in2="hardAlpha" operator="out"></feComposite><feColorMatrix type="matrix" values="0 0 0 0 0.0627451 0 0 0 0 0.0941176 0 0 0 0 0.12549 0 0 0 0.09 0"></feColorMatrix><feBlend mode="normal" in2="BackgroundImageFix" result="effect1_dropShadow_2_17480"></feBlend><feBlend mode="normal" in="SourceGraphic" in2="effect1_dropShadow_2_17480" result="shape"></feBlend></filter></defs></svg> 