<?xml version="1.0" encoding="UTF-8"?> <svg xmlns="http://www.w3.org/2000/svg" width="600" height="470" viewBox="0 0 600 470" fill="none"><g filter="url(#filter0_d_2_17567)"><rect x="387" y="72.6973" width="126.968" height="126.968" rx="10" fill="white"></rect></g><g filter="url(#filter1_d_2_17567)"><rect x="372" y="72.6973" width="142" height="127" rx="7" fill="white"></rect></g><path d="M372 87.6973H514V192.697C514 196.563 510.866 199.697 507 199.697H379C375.134 199.697 372 196.563 372 192.697V87.6973Z" fill="#101820"></path><circle cx="379.855" cy="80.8509" r="1.85482" fill="#D9D9D9"></circle><circle cx="387.413" cy="80.8509" r="1.85482" fill="#D9D9D9"></circle><circle cx="394.972" cy="80.8509" r="1.85482" fill="#D9D9D9"></circle><rect x="403" y="98.6973" width="83.5434" height="2.64706" fill="#01ADE2"></rect><rect x="403" y="107.521" width="83.5434" height="2.64706" fill="#01ADE2"></rect><rect x="403" y="116.344" width="64.5563" height="2.64706" fill="#01ADE2"></rect><rect x="403" y="125.168" width="83.5434" height="2.64706" fill="#01ADE2"></rect><rect x="403" y="133.992" width="83.5434" height="2.64706" fill="#01ADE2"></rect><rect x="419.457" y="156.492" width="73.8388" height="2.64706" fill="#01ADE2"></rect><rect x="403" y="177.227" width="72.1511" height="2.64706" fill="#01ADE2"></rect><rect x="403" y="142.814" width="75.1047" height="2.64706" fill="#01ADE2"></rect><rect x="419.457" y="165.314" width="83.5434" height="2.64706" fill="#01ADE2"></rect><rect x="403" y="186.051" width="83.5434" height="2.64706" fill="#01ADE2"></rect><path d="M459.561 72.6895C459.915 72.6895 460.207 72.9814 460.207 73.3359V86.7942C460.207 87.1487 459.915 87.4407 459.561 87.4407C459.206 87.4407 458.914 87.1487 458.914 86.7942V73.3359C458.914 72.9814 459.206 72.6895 459.561 72.6895Z" fill="white"></path><path d="M428.105 61.4052C428.769 61.4052 429.308 60.8668 429.308 60.2026C429.308 59.5384 428.769 59 428.105 59C427.441 59 426.902 59.5384 426.902 60.2026C426.902 60.8668 427.441 61.4052 428.105 61.4052Z" fill="white"></path><path d="M410.664 60.2031C410.664 59.8486 410.956 59.5566 411.311 59.5566H424.769C425.123 59.5566 425.415 59.8486 425.415 60.2031C425.415 60.5577 425.123 60.8496 424.769 60.8496H411.311C410.956 60.8496 410.664 60.5646 410.664 60.2031Z" fill="white"></path><g filter="url(#filter2_d_2_17567)"><g filter="url(#filter3_d_2_17567)"><rect x="88.1694" y="115.697" width="336.829" height="247.272" rx="10" fill="white"></rect></g><circle cx="103.196" cy="130.781" r="3.61688" fill="#D9D9D9"></circle><circle cx="117.93" cy="130.781" r="3.61688" fill="#D9D9D9"></circle><circle cx="132.677" cy="130.781" r="3.61688" fill="#D9D9D9"></circle><path d="M152 219H192" stroke="#54A09E" stroke-width="1.54993" stroke-miterlimit="10" stroke-linecap="round" stroke-dasharray="0.17 3.1"></path><path d="M152 251H378" stroke="#54A09E" stroke-width="1.54993" stroke-miterlimit="10" stroke-linecap="round" stroke-dasharray="0.17 3.1"></path><path d="M152 200H378" stroke="#54A09E" stroke-width="1.54993" stroke-miterlimit="10" stroke-linecap="round" stroke-dasharray="0.17 3.1"></path><path d="M152 180H378" stroke="#54A09E" stroke-width="1.54993" stroke-miterlimit="10" stroke-linecap="round" stroke-dasharray="0.17 3.1"></path><path d="M152 271H283" stroke="#54A09E" stroke-width="1.54993" stroke-miterlimit="10" stroke-linecap="round" stroke-dasharray="0.17 3.1"></path><path d="M152 290H378" stroke="#54A09E" stroke-width="1.54993" stroke-miterlimit="10" stroke-linecap="round" stroke-dasharray="0.17 3.1"></path><path d="M152 313H311" stroke="#54A09E" stroke-width="1.54993" stroke-miterlimit="10" stroke-linecap="round" stroke-dasharray="0.17 3.1"></path><path d="M152 335H378" stroke="#54A09E" stroke-width="1.54993" stroke-miterlimit="10" stroke-linecap="round" stroke-dasharray="0.17 3.1"></path><path d="M88.1694 193.366H136.514" stroke="#101820" stroke-width="0.344428" stroke-miterlimit="10"></path><path d="M136.516 363.282L136.516 145.314" stroke="#101820" stroke-width="0.344428" stroke-miterlimit="10"></path><path d="M86 145.222H424.998" stroke="#D9D9D9" stroke-width="0.344428" stroke-miterlimit="10"></path></g><path d="M488.507 272.153V389.718C488.507 404.618 457.049 416.697 418.244 416.697C379.439 416.697 348 404.599 348 389.699V272.153" fill="#A4C46A"></path><path d="M418.254 298.917C457.054 298.917 488.508 286.779 488.508 271.807C488.508 256.835 457.054 244.697 418.254 244.697C379.454 244.697 348 256.835 348 271.807C348 286.779 379.454 298.917 418.254 298.917Z" fill="#EEEEEE"></path><path d="M418.254 338.145C379.454 338.145 348 326.007 348 311.035V348.661C348 363.633 379.454 375.771 418.254 375.771C457.054 375.771 488.508 363.633 488.508 348.661V311.035C488.49 326.007 457.036 338.145 418.254 338.145Z" fill="#EEEEEE"></path><defs><filter id="filter0_d_2_17567" x="367.242" y="58.2652" width="166.484" height="166.484" filterUnits="userSpaceOnUse" color-interpolation-filters="sRGB"><feFlood flood-opacity="0" result="BackgroundImageFix"></feFlood><feColorMatrix in="SourceAlpha" type="matrix" values="0 0 0 0 0 0 0 0 0 0 0 0 0 0 0 0 0 0 127 0" result="hardAlpha"></feColorMatrix><feMorphology radius="0.85905" operator="dilate" in="SourceAlpha" result="effect1_dropShadow_2_17567"></feMorphology><feOffset dy="5.32611"></feOffset><feGaussianBlur stdDeviation="9.44955"></feGaussianBlur><feComposite in2="hardAlpha" operator="out"></feComposite><feColorMatrix type="matrix" values="0 0 0 0 0.0627451 0 0 0 0 0.0941176 0 0 0 0 0.12549 0 0 0 0.09 0"></feColorMatrix><feBlend mode="normal" in2="BackgroundImageFix" result="effect1_dropShadow_2_17567"></feBlend><feBlend mode="normal" in="SourceGraphic" in2="effect1_dropShadow_2_17567" result="shape"></feBlend></filter><filter id="filter1_d_2_17567" x="352.242" y="58.2652" width="181.516" height="166.516" filterUnits="userSpaceOnUse" color-interpolation-filters="sRGB"><feFlood flood-opacity="0" result="BackgroundImageFix"></feFlood><feColorMatrix in="SourceAlpha" type="matrix" values="0 0 0 0 0 0 0 0 0 0 0 0 0 0 0 0 0 0 127 0" result="hardAlpha"></feColorMatrix><feMorphology radius="0.85905" operator="dilate" in="SourceAlpha" result="effect1_dropShadow_2_17567"></feMorphology><feOffset dy="5.32611"></feOffset><feGaussianBlur stdDeviation="9.44955"></feGaussianBlur><feComposite in2="hardAlpha" operator="out"></feComposite><feColorMatrix type="matrix" values="0 0 0 0 0.0627451 0 0 0 0 0.0941176 0 0 0 0 0.12549 0 0 0 0.09 0"></feColorMatrix><feBlend mode="normal" in2="BackgroundImageFix" result="effect1_dropShadow_2_17567"></feBlend><feBlend mode="normal" in="SourceGraphic" in2="effect1_dropShadow_2_17567" result="shape"></feBlend></filter><filter id="filter2_d_2_17567" x="74" y="105.697" width="364.998" height="273.585" filterUnits="userSpaceOnUse" color-interpolation-filters="sRGB"><feFlood flood-opacity="0" result="BackgroundImageFix"></feFlood><feColorMatrix in="SourceAlpha" type="matrix" values="0 0 0 0 0 0 0 0 0 0 0 0 0 0 0 0 0 0 127 0" result="hardAlpha"></feColorMatrix><feOffset dx="1" dy="3"></feOffset><feGaussianBlur stdDeviation="6.5"></feGaussianBlur><feComposite in2="hardAlpha" operator="out"></feComposite><feColorMatrix type="matrix" values="0 0 0 0 0.0627451 0 0 0 0 0.0941176 0 0 0 0 0.12549 0 0 0 0.06 0"></feColorMatrix><feBlend mode="normal" in2="BackgroundImageFix" result="effect1_dropShadow_2_17567"></feBlend><feBlend mode="normal" in="SourceGraphic" in2="effect1_dropShadow_2_17567" result="shape"></feBlend></filter><filter id="filter3_d_2_17567" x="68.3648" y="101.231" width="376.438" height="286.881" filterUnits="userSpaceOnUse" color-interpolation-filters="sRGB"><feFlood flood-opacity="0" result="BackgroundImageFix"></feFlood><feColorMatrix in="SourceAlpha" type="matrix" values="0 0 0 0 0 0 0 0 0 0 0 0 0 0 0 0 0 0 127 0" result="hardAlpha"></feColorMatrix><feMorphology radius="0.86107" operator="dilate" in="SourceAlpha" result="effect1_dropShadow_2_17567"></feMorphology><feOffset dy="5.33863"></feOffset><feGaussianBlur stdDeviation="9.47177"></feGaussianBlur><feComposite in2="hardAlpha" operator="out"></feComposite><feColorMatrix type="matrix" values="0 0 0 0 0.0627451 0 0 0 0 0.0941176 0 0 0 0 0.12549 0 0 0 0.09 0"></feColorMatrix><feBlend mode="normal" in2="BackgroundImageFix" result="effect1_dropShadow_2_17567"></feBlend><feBlend mode="normal" in="SourceGraphic" in2="effect1_dropShadow_2_17567" result="shape"></feBlend></filter></defs></svg> 