<svg xmlns="http://www.w3.org/2000/svg" width="600" height="470" fill="none" viewBox="0 0 600 470"><g filter="url(#filter0_d_2_17567)"><rect width="126.968" height="126.968" x="387" y="72.697" fill="#fff" rx="10"/></g><g filter="url(#filter1_d_2_17567)"><rect width="142" height="127" x="372" y="72.697" fill="#fff" rx="7"/></g><path fill="#101820" d="M372 87.6973H514V192.697C514 196.563 510.866 199.697 507 199.697H379C375.134 199.697 372 196.563 372 192.697V87.6973Z"/><circle cx="379.855" cy="80.851" r="1.855" fill="#D9D9D9"/><circle cx="387.413" cy="80.851" r="1.855" fill="#D9D9D9"/><circle cx="394.972" cy="80.851" r="1.855" fill="#D9D9D9"/><rect width="83.543" height="2.647" x="403" y="98.697" fill="#01ADE2"/><rect width="83.543" height="2.647" x="403" y="107.521" fill="#01ADE2"/><rect width="64.556" height="2.647" x="403" y="116.344" fill="#01ADE2"/><rect width="83.543" height="2.647" x="403" y="125.168" fill="#01ADE2"/><rect width="83.543" height="2.647" x="403" y="133.992" fill="#01ADE2"/><rect width="73.839" height="2.647" x="419.457" y="156.492" fill="#01ADE2"/><rect width="72.151" height="2.647" x="403" y="177.227" fill="#01ADE2"/><rect width="75.105" height="2.647" x="403" y="142.814" fill="#01ADE2"/><rect width="83.543" height="2.647" x="419.457" y="165.314" fill="#01ADE2"/><rect width="83.543" height="2.647" x="403" y="186.051" fill="#01ADE2"/><path fill="#fff" d="M459.561 72.6895C459.915 72.6895 460.207 72.9814 460.207 73.3359V86.7942C460.207 87.1487 459.915 87.4407 459.561 87.4407C459.206 87.4407 458.914 87.1487 458.914 86.7942V73.3359C458.914 72.9814 459.206 72.6895 459.561 72.6895Z"/><path fill="#fff" d="M428.105 61.4052C428.769 61.4052 429.308 60.8668 429.308 60.2026C429.308 59.5384 428.769 59 428.105 59C427.441 59 426.902 59.5384 426.902 60.2026C426.902 60.8668 427.441 61.4052 428.105 61.4052Z"/><path fill="#fff" d="M410.664 60.2031C410.664 59.8486 410.956 59.5566 411.311 59.5566H424.769C425.123 59.5566 425.415 59.8486 425.415 60.2031C425.415 60.5577 425.123 60.8496 424.769 60.8496H411.311C410.956 60.8496 410.664 60.5646 410.664 60.2031Z"/><g filter="url(#filter2_d_2_17567)"><g filter="url(#filter3_d_2_17567)"><rect width="336.829" height="247.272" x="88.169" y="115.697" fill="#fff" rx="10"/></g><circle cx="103.196" cy="130.781" r="3.617" fill="#D9D9D9"/><circle cx="117.93" cy="130.781" r="3.617" fill="#D9D9D9"/><circle cx="132.677" cy="130.781" r="3.617" fill="#D9D9D9"/><path stroke="#54A09E" stroke-dasharray=".17 3.1" stroke-linecap="round" stroke-miterlimit="10" stroke-width="1.55" d="M152 219H192"/><path stroke="#54A09E" stroke-dasharray=".17 3.1" stroke-linecap="round" stroke-miterlimit="10" stroke-width="1.55" d="M152 251H378"/><path stroke="#54A09E" stroke-dasharray=".17 3.1" stroke-linecap="round" stroke-miterlimit="10" stroke-width="1.55" d="M152 200H378"/><path stroke="#54A09E" stroke-dasharray=".17 3.1" stroke-linecap="round" stroke-miterlimit="10" stroke-width="1.55" d="M152 180H378"/><path stroke="#54A09E" stroke-dasharray=".17 3.1" stroke-linecap="round" stroke-miterlimit="10" stroke-width="1.55" d="M152 271H283"/><path stroke="#54A09E" stroke-dasharray=".17 3.1" stroke-linecap="round" stroke-miterlimit="10" stroke-width="1.55" d="M152 290H378"/><path stroke="#54A09E" stroke-dasharray=".17 3.1" stroke-linecap="round" stroke-miterlimit="10" stroke-width="1.55" d="M152 313H311"/><path stroke="#54A09E" stroke-dasharray=".17 3.1" stroke-linecap="round" stroke-miterlimit="10" stroke-width="1.55" d="M152 335H378"/><path stroke="#101820" stroke-miterlimit="10" stroke-width=".344" d="M88.1694 193.366H136.514"/><path stroke="#101820" stroke-miterlimit="10" stroke-width=".344" d="M136.516 363.282L136.516 145.314"/><path stroke="#D9D9D9" stroke-miterlimit="10" stroke-width=".344" d="M86 145.222H424.998"/></g><path fill="#A4C46A" d="M488.507 272.153V389.718C488.507 404.618 457.049 416.697 418.244 416.697C379.439 416.697 348 404.599 348 389.699V272.153"/><path fill="#EEE" d="M418.254 298.917C457.054 298.917 488.508 286.779 488.508 271.807C488.508 256.835 457.054 244.697 418.254 244.697C379.454 244.697 348 256.835 348 271.807C348 286.779 379.454 298.917 418.254 298.917Z"/><path fill="#EEE" d="M418.254 338.145C379.454 338.145 348 326.007 348 311.035V348.661C348 363.633 379.454 375.771 418.254 375.771C457.054 375.771 488.508 363.633 488.508 348.661V311.035C488.49 326.007 457.036 338.145 418.254 338.145Z"/><defs><filter id="filter0_d_2_17567" width="166.484" height="166.484" x="367.242" y="58.265" color-interpolation-filters="sRGB" filterUnits="userSpaceOnUse"><feFlood flood-opacity="0" result="BackgroundImageFix"/><feColorMatrix in="SourceAlpha" result="hardAlpha" type="matrix" values="0 0 0 0 0 0 0 0 0 0 0 0 0 0 0 0 0 0 127 0"/><feMorphology in="SourceAlpha" operator="dilate" radius=".859" result="effect1_dropShadow_2_17567"/><feOffset dy="5.326"/><feGaussianBlur stdDeviation="9.45"/><feComposite in2="hardAlpha" operator="out"/><feColorMatrix type="matrix" values="0 0 0 0 0.0627451 0 0 0 0 0.0941176 0 0 0 0 0.12549 0 0 0 0.09 0"/><feBlend in2="BackgroundImageFix" mode="normal" result="effect1_dropShadow_2_17567"/><feBlend in="SourceGraphic" in2="effect1_dropShadow_2_17567" mode="normal" result="shape"/></filter><filter id="filter1_d_2_17567" width="181.516" height="166.516" x="352.242" y="58.265" color-interpolation-filters="sRGB" filterUnits="userSpaceOnUse"><feFlood flood-opacity="0" result="BackgroundImageFix"/><feColorMatrix in="SourceAlpha" result="hardAlpha" type="matrix" values="0 0 0 0 0 0 0 0 0 0 0 0 0 0 0 0 0 0 127 0"/><feMorphology in="SourceAlpha" operator="dilate" radius=".859" result="effect1_dropShadow_2_17567"/><feOffset dy="5.326"/><feGaussianBlur stdDeviation="9.45"/><feComposite in2="hardAlpha" operator="out"/><feColorMatrix type="matrix" values="0 0 0 0 0.0627451 0 0 0 0 0.0941176 0 0 0 0 0.12549 0 0 0 0.09 0"/><feBlend in2="BackgroundImageFix" mode="normal" result="effect1_dropShadow_2_17567"/><feBlend in="SourceGraphic" in2="effect1_dropShadow_2_17567" mode="normal" result="shape"/></filter><filter id="filter2_d_2_17567" width="364.998" height="273.585" x="74" y="105.697" color-interpolation-filters="sRGB" filterUnits="userSpaceOnUse"><feFlood flood-opacity="0" result="BackgroundImageFix"/><feColorMatrix in="SourceAlpha" result="hardAlpha" type="matrix" values="0 0 0 0 0 0 0 0 0 0 0 0 0 0 0 0 0 0 127 0"/><feOffset dx="1" dy="3"/><feGaussianBlur stdDeviation="6.5"/><feComposite in2="hardAlpha" operator="out"/><feColorMatrix type="matrix" values="0 0 0 0 0.0627451 0 0 0 0 0.0941176 0 0 0 0 0.12549 0 0 0 0.06 0"/><feBlend in2="BackgroundImageFix" mode="normal" result="effect1_dropShadow_2_17567"/><feBlend in="SourceGraphic" in2="effect1_dropShadow_2_17567" mode="normal" result="shape"/></filter><filter id="filter3_d_2_17567" width="376.438" height="286.881" x="68.365" y="101.231" color-interpolation-filters="sRGB" filterUnits="userSpaceOnUse"><feFlood flood-opacity="0" result="BackgroundImageFix"/><feColorMatrix in="SourceAlpha" result="hardAlpha" type="matrix" values="0 0 0 0 0 0 0 0 0 0 0 0 0 0 0 0 0 0 127 0"/><feMorphology in="SourceAlpha" operator="dilate" radius=".861" result="effect1_dropShadow_2_17567"/><feOffset dy="5.339"/><feGaussianBlur stdDeviation="9.472"/><feComposite in2="hardAlpha" operator="out"/><feColorMatrix type="matrix" values="0 0 0 0 0.0627451 0 0 0 0 0.0941176 0 0 0 0 0.12549 0 0 0 0.09 0"/><feBlend in2="BackgroundImageFix" mode="normal" result="effect1_dropShadow_2_17567"/><feBlend in="SourceGraphic" in2="effect1_dropShadow_2_17567" mode="normal" result="shape"/></filter></defs></svg>