<?xml version="1.0" encoding="UTF-8"?> <svg xmlns="http://www.w3.org/2000/svg" width="600" height="470" viewBox="0 0 600 470" fill="none"><path d="M488.507 272.153V389.718C488.507 404.618 457.049 416.697 418.244 416.697C379.439 416.697 348 404.599 348 389.699V272.153" fill="#A4C46A"></path><path d="M418.254 298.917C457.054 298.917 488.508 286.779 488.508 271.807C488.508 256.835 457.054 244.697 418.254 244.697C379.454 244.697 348 256.835 348 271.807C348 286.779 379.454 298.917 418.254 298.917Z" fill="#E6E6E6"></path><path d="M418.254 338.145C379.454 338.145 348 326.007 348 311.035V348.661C348 363.633 379.454 375.771 418.254 375.771C457.054 375.771 488.508 363.633 488.508 348.661V311.035C488.49 326.007 457.036 338.145 418.254 338.145Z" fill="#E6E6E6"></path><g filter="url(#filter0_d_2_18038)"><rect x="387" y="72.6973" width="126.968" height="126.968" rx="10" fill="white"></rect></g><g filter="url(#filter1_d_2_18038)"><rect x="372" y="72.6973" width="142" height="127" rx="7" fill="white"></rect></g><path d="M372 87.6973H514V192.697C514 196.563 510.866 199.697 507 199.697H379C375.134 199.697 372 196.563 372 192.697V87.6973Z" fill="#101820"></path><circle cx="379.855" cy="80.8509" r="1.85482" fill="#A4C46A"></circle><circle cx="387.413" cy="80.8509" r="1.85482" fill="#A4C46A"></circle><circle cx="394.972" cy="80.8509" r="1.85482" fill="#A4C46A"></circle><rect x="403" y="98.6973" width="83.5434" height="2.64706" fill="#01ADE2"></rect><rect x="403" y="107.521" width="83.5434" height="2.64706" fill="#01ADE2"></rect><rect x="403" y="116.344" width="64.5563" height="2.64706" fill="#01ADE2"></rect><rect x="403" y="125.168" width="83.5434" height="2.64706" fill="#01ADE2"></rect><rect x="403" y="133.992" width="83.5434" height="2.64706" fill="#01ADE2"></rect><rect x="419.457" y="156.492" width="73.8388" height="2.64706" fill="#01ADE2"></rect><rect x="403" y="177.227" width="72.1511" height="2.64706" fill="#01ADE2"></rect><rect x="403" y="142.814" width="75.1047" height="2.64706" fill="#01ADE2"></rect><rect x="419.457" y="165.314" width="83.5434" height="2.64706" fill="#01ADE2"></rect><rect x="403" y="186.051" width="83.5434" height="2.64706" fill="#01ADE2"></rect><path d="M459.561 72.6895C459.915 72.6895 460.207 72.9814 460.207 73.3359V86.7942C460.207 87.1487 459.915 87.4407 459.561 87.4407C459.206 87.4407 458.914 87.1487 458.914 86.7942V73.3359C458.914 72.9814 459.206 72.6895 459.561 72.6895Z" fill="white"></path><path d="M428.105 61.4052C428.769 61.4052 429.308 60.8668 429.308 60.2026C429.308 59.5384 428.769 59 428.105 59C427.441 59 426.902 59.5384 426.902 60.2026C426.902 60.8668 427.441 61.4052 428.105 61.4052Z" fill="white"></path><path d="M410.664 60.2031C410.664 59.8486 410.956 59.5566 411.311 59.5566H424.769C425.123 59.5566 425.415 59.8486 425.415 60.2031C425.415 60.5577 425.123 60.8496 424.769 60.8496H411.311C410.956 60.8496 410.664 60.5646 410.664 60.2031Z" fill="white"></path><g filter="url(#filter2_d_2_18038)"><g filter="url(#filter3_d_2_18038)"><rect x="88.1704" y="116" width="336.83" height="247.273" rx="10" fill="white"></rect></g><circle cx="103.196" cy="131.082" r="3.61689" fill="#D9D9D9"></circle><circle cx="117.935" cy="131.082" r="3.61689" fill="#D9D9D9"></circle><circle cx="132.674" cy="131.082" r="3.61689" fill="#D9D9D9"></circle><path d="M425 146H257V364H414.667C420.374 364 425 359.374 425 353.667V146Z" fill="#101820"></path><path d="M353.201 172.359H283.797V184.654H353.201V172.359Z" fill="#54A09E" stroke="black" stroke-width="0.0430535" stroke-miterlimit="10"></path><path d="M221 253H159V265H221V253Z" fill="#D9D9D9"></path><path opacity="0.5" d="M397.62 172.359H374.485V184.654H397.62V172.359Z" fill="#3D4B58"></path><path opacity="0.5" d="M336.544 195.875H283.798V208.17H336.544V195.875Z" fill="#3D4B58"></path><path opacity="0.5" d="M397.618 195.875H353.201V208.17H397.618V195.875Z" fill="#3D4B58"></path><path opacity="0.5" d="M316.111 219.393H283.798V231.688H316.111V219.393Z" fill="#3D4B58"></path><path d="M397.614 219.393H336.539V231.688H397.614V219.393Z" fill="#54A09E"></path><path opacity="0.5" d="M330.75 265.301H283.798V277.596H330.75V265.301Z" fill="#3D4B58"></path><path opacity="0.5" d="M397.618 265.301H353.201V277.596H397.618V265.301Z" fill="#3D4B58"></path><path d="M320.791 288.806H283.798V301.101H320.791V288.806Z" fill="#54A09E"></path><path opacity="0.5" d="M397.616 288.806H330.747V301.101H397.616V288.806Z" fill="#3D4B58"></path><path opacity="0.5" d="M353.202 312.323H283.798V324.618H353.202V312.323Z" fill="#3D4B58"></path><path d="M397.622 312.323H377.677V324.618H397.622V312.323Z" fill="#54A09E"></path><path d="M88.1704 193.669H136.515" stroke="#101820" stroke-width="0.344428" stroke-miterlimit="10"></path><path d="M136.515 363.587L136.515 145.618" stroke="#101820" stroke-width="0.344428" stroke-miterlimit="10"></path><path d="M86 145.527H424.999" stroke="#D9D9D9" stroke-width="0.344428" stroke-miterlimit="10"></path></g><path d="M189.939 200.886C200.144 200.886 208.417 192.629 208.417 182.443C208.417 172.257 200.144 164 189.939 164C179.734 164 171.461 172.257 171.461 182.443C171.461 192.629 179.734 200.886 189.939 200.886Z" fill="#D9D9D9"></path><path d="M220.874 239.906H159V235.75C159 218.66 172.852 204.805 189.937 204.805C207.022 204.805 220.874 218.66 220.874 235.75V239.906Z" fill="#D9D9D9"></path><defs><filter id="filter0_d_2_18038" x="367.242" y="58.2652" width="166.484" height="166.484" filterUnits="userSpaceOnUse" color-interpolation-filters="sRGB"><feFlood flood-opacity="0" result="BackgroundImageFix"></feFlood><feColorMatrix in="SourceAlpha" type="matrix" values="0 0 0 0 0 0 0 0 0 0 0 0 0 0 0 0 0 0 127 0" result="hardAlpha"></feColorMatrix><feMorphology radius="0.85905" operator="dilate" in="SourceAlpha" result="effect1_dropShadow_2_18038"></feMorphology><feOffset dy="5.32611"></feOffset><feGaussianBlur stdDeviation="9.44955"></feGaussianBlur><feComposite in2="hardAlpha" operator="out"></feComposite><feColorMatrix type="matrix" values="0 0 0 0 0.0627451 0 0 0 0 0.0941176 0 0 0 0 0.12549 0 0 0 0.09 0"></feColorMatrix><feBlend mode="normal" in2="BackgroundImageFix" result="effect1_dropShadow_2_18038"></feBlend><feBlend mode="normal" in="SourceGraphic" in2="effect1_dropShadow_2_18038" result="shape"></feBlend></filter><filter id="filter1_d_2_18038" x="352.242" y="58.2652" width="181.516" height="166.516" filterUnits="userSpaceOnUse" color-interpolation-filters="sRGB"><feFlood flood-opacity="0" result="BackgroundImageFix"></feFlood><feColorMatrix in="SourceAlpha" type="matrix" values="0 0 0 0 0 0 0 0 0 0 0 0 0 0 0 0 0 0 127 0" result="hardAlpha"></feColorMatrix><feMorphology radius="0.85905" operator="dilate" in="SourceAlpha" result="effect1_dropShadow_2_18038"></feMorphology><feOffset dy="5.32611"></feOffset><feGaussianBlur stdDeviation="9.44955"></feGaussianBlur><feComposite in2="hardAlpha" operator="out"></feComposite><feColorMatrix type="matrix" values="0 0 0 0 0.0627451 0 0 0 0 0.0941176 0 0 0 0 0.12549 0 0 0 0.09 0"></feColorMatrix><feBlend mode="normal" in2="BackgroundImageFix" result="effect1_dropShadow_2_18038"></feBlend><feBlend mode="normal" in="SourceGraphic" in2="effect1_dropShadow_2_18038" result="shape"></feBlend></filter><filter id="filter2_d_2_18038" x="74" y="106" width="365" height="274" filterUnits="userSpaceOnUse" color-interpolation-filters="sRGB"><feFlood flood-opacity="0" result="BackgroundImageFix"></feFlood><feColorMatrix in="SourceAlpha" type="matrix" values="0 0 0 0 0 0 0 0 0 0 0 0 0 0 0 0 0 0 127 0" result="hardAlpha"></feColorMatrix><feOffset dx="1" dy="3"></feOffset><feGaussianBlur stdDeviation="6.5"></feGaussianBlur><feComposite in2="hardAlpha" operator="out"></feComposite><feColorMatrix type="matrix" values="0 0 0 0 0.0627451 0 0 0 0 0.0941176 0 0 0 0 0.12549 0 0 0 0.06 0"></feColorMatrix><feBlend mode="normal" in2="BackgroundImageFix" result="effect1_dropShadow_2_18038"></feBlend><feBlend mode="normal" in="SourceGraphic" in2="effect1_dropShadow_2_18038" result="shape"></feBlend></filter><filter id="filter3_d_2_18038" x="68.3658" y="101.534" width="376.439" height="286.882" filterUnits="userSpaceOnUse" color-interpolation-filters="sRGB"><feFlood flood-opacity="0" result="BackgroundImageFix"></feFlood><feColorMatrix in="SourceAlpha" type="matrix" values="0 0 0 0 0 0 0 0 0 0 0 0 0 0 0 0 0 0 127 0" result="hardAlpha"></feColorMatrix><feMorphology radius="0.86107" operator="dilate" in="SourceAlpha" result="effect1_dropShadow_2_18038"></feMorphology><feOffset dy="5.33863"></feOffset><feGaussianBlur stdDeviation="9.47177"></feGaussianBlur><feComposite in2="hardAlpha" operator="out"></feComposite><feColorMatrix type="matrix" values="0 0 0 0 0.0627451 0 0 0 0 0.0941176 0 0 0 0 0.12549 0 0 0 0.09 0"></feColorMatrix><feBlend mode="normal" in2="BackgroundImageFix" result="effect1_dropShadow_2_18038"></feBlend><feBlend mode="normal" in="SourceGraphic" in2="effect1_dropShadow_2_18038" result="shape"></feBlend></filter></defs></svg> 