<svg xmlns="http://www.w3.org/2000/svg" width="600" height="470" fill="none" viewBox="0 0 600 470"><g filter="url(#filter0_d_2_18094)"><rect width="425" height="312" x="88.738" y="80" fill="#fff" rx="10"/></g><circle cx="107.696" cy="99.031" r="4.564" fill="#A9B1B9"/><circle cx="126.294" cy="99.031" r="4.564" fill="#A9B1B9"/><circle cx="144.892" cy="99.031" r="4.564" fill="#A9B1B9"/><path fill="#101820" d="M150 117H514V382C514 387.523 509.523 392 504 392H150V117Z"/><path stroke="#A9B1B9" stroke-miterlimit="10" stroke-width=".344" d="M88.7383 178H149.738"/><path stroke="#101820" stroke-miterlimit="10" stroke-width=".344" d="M150 392L150 117"/><path stroke="#A9B1B9" stroke-miterlimit="10" stroke-width=".344" d="M89 117L514 117"/><rect width="198" height="6" x="208" y="152" fill="#54A09E"/><rect width="198" height="6" x="208" y="172" fill="#54A09E"/><rect width="153" height="6" x="208" y="192" fill="#54A09E"/><rect width="198" height="6" x="208" y="212" fill="#54A09E"/><rect width="198" height="6" x="208" y="232" fill="#54A09E"/><rect width="175" height="6" x="247" y="283" fill="#54A09E"/><rect width="171" height="6" x="208" y="330" fill="#54A09E"/><rect width="178" height="6" x="208" y="252" fill="#54A09E"/><rect width="198" height="6" x="247" y="303" fill="#54A09E"/><rect width="39" height="6" x="346" y="172" fill="#01ADE2"/><rect width="39" height="6" x="246" y="232" fill="#01ADE2"/><rect width="39" height="6" x="311" y="303" fill="#01ADE2"/><rect width="198" height="6" x="208" y="350" fill="#54A09E"/><path stroke="#fff" stroke-width=".4" d="M198 152L198 258"/><path stroke="#fff" stroke-width=".4" d="M198 330L198 356"/><path stroke="#fff" stroke-width=".4" d="M237 283L237 309"/><defs><filter id="filter0_d_2_18094" width="464.609" height="351.609" x="68.934" y="65.534" color-interpolation-filters="sRGB" filterUnits="userSpaceOnUse"><feFlood flood-opacity="0" result="BackgroundImageFix"/><feColorMatrix in="SourceAlpha" result="hardAlpha" type="matrix" values="0 0 0 0 0 0 0 0 0 0 0 0 0 0 0 0 0 0 127 0"/><feMorphology in="SourceAlpha" operator="dilate" radius=".861" result="effect1_dropShadow_2_18094"/><feOffset dy="5.339"/><feGaussianBlur stdDeviation="9.472"/><feComposite in2="hardAlpha" operator="out"/><feColorMatrix type="matrix" values="0 0 0 0 0.0627451 0 0 0 0 0.0941176 0 0 0 0 0.12549 0 0 0 0.09 0"/><feBlend in2="BackgroundImageFix" mode="normal" result="effect1_dropShadow_2_18094"/><feBlend in="SourceGraphic" in2="effect1_dropShadow_2_18094" mode="normal" result="shape"/></filter></defs></svg>