<?xml version="1.0" encoding="UTF-8"?> <svg xmlns="http://www.w3.org/2000/svg" width="600" height="470" viewBox="0 0 600 470" fill="none"><g filter="url(#filter0_d_2_18094)"><rect x="88.7383" y="80" width="425" height="312" rx="10" fill="white"></rect></g><circle cx="107.696" cy="99.0305" r="4.56367" fill="#A9B1B9"></circle><circle cx="126.294" cy="99.0305" r="4.56367" fill="#A9B1B9"></circle><circle cx="144.892" cy="99.0305" r="4.56367" fill="#A9B1B9"></circle><path d="M150 117H514V382C514 387.523 509.523 392 504 392H150V117Z" fill="#101820"></path><path d="M88.7383 178H149.738" stroke="#A9B1B9" stroke-width="0.344428" stroke-miterlimit="10"></path><path d="M150 392L150 117" stroke="#101820" stroke-width="0.344428" stroke-miterlimit="10"></path><path d="M89 117L514 117" stroke="#A9B1B9" stroke-width="0.344428" stroke-miterlimit="10"></path><rect x="208" y="152" width="198" height="6" fill="#54A09E"></rect><rect x="208" y="172" width="198" height="6" fill="#54A09E"></rect><rect x="208" y="192" width="153" height="6" fill="#54A09E"></rect><rect x="208" y="212" width="198" height="6" fill="#54A09E"></rect><rect x="208" y="232" width="198" height="6" fill="#54A09E"></rect><rect x="247" y="283" width="175" height="6" fill="#54A09E"></rect><rect x="208" y="330" width="171" height="6" fill="#54A09E"></rect><rect x="208" y="252" width="178" height="6" fill="#54A09E"></rect><rect x="247" y="303" width="198" height="6" fill="#54A09E"></rect><rect x="346" y="172" width="39" height="6" fill="#01ADE2"></rect><rect x="246" y="232" width="39" height="6" fill="#01ADE2"></rect><rect x="311" y="303" width="39" height="6" fill="#01ADE2"></rect><rect x="208" y="350" width="198" height="6" fill="#54A09E"></rect><path d="M198 152L198 258" stroke="white" stroke-width="0.4"></path><path d="M198 330L198 356" stroke="white" stroke-width="0.4"></path><path d="M237 283L237 309" stroke="white" stroke-width="0.4"></path><defs><filter id="filter0_d_2_18094" x="68.9337" y="65.534" width="464.609" height="351.609" filterUnits="userSpaceOnUse" color-interpolation-filters="sRGB"><feFlood flood-opacity="0" result="BackgroundImageFix"></feFlood><feColorMatrix in="SourceAlpha" type="matrix" values="0 0 0 0 0 0 0 0 0 0 0 0 0 0 0 0 0 0 127 0" result="hardAlpha"></feColorMatrix><feMorphology radius="0.86107" operator="dilate" in="SourceAlpha" result="effect1_dropShadow_2_18094"></feMorphology><feOffset dy="5.33863"></feOffset><feGaussianBlur stdDeviation="9.47177"></feGaussianBlur><feComposite in2="hardAlpha" operator="out"></feComposite><feColorMatrix type="matrix" values="0 0 0 0 0.0627451 0 0 0 0 0.0941176 0 0 0 0 0.12549 0 0 0 0.09 0"></feColorMatrix><feBlend mode="normal" in2="BackgroundImageFix" result="effect1_dropShadow_2_18094"></feBlend><feBlend mode="normal" in="SourceGraphic" in2="effect1_dropShadow_2_18094" result="shape"></feBlend></filter></defs></svg> 