<svg xmlns="http://www.w3.org/2000/svg" width="796" height="542" fill="none" viewBox="0 0 796 542"><g filter="url(#filter0_d_36_11570)"><rect width="305.333" height="229" x="398.332" y="269" fill="#fff" rx="9"/></g><circle cx="411.725" cy="283.969" r="3.35" fill="#D9D9D9"/><circle cx="425.373" cy="283.969" r="3.35" fill="#D9D9D9"/><circle cx="439.021" cy="283.969" r="3.35" fill="#D9D9D9"/><path stroke="#D9D9D9" stroke-miterlimit="10" stroke-width=".5" d="M398 298.156L703.333 298.156"/><rect width="193.769" height="4.404" x="450.111" y="320.378" fill="#A4C46A" rx="2.202"/><rect width="193.769" height="4.404" x="450.111" y="335.059" fill="#A4C46A" rx="2.202"/><rect width="149.731" height="4.404" x="450.111" y="349.738" fill="#A4C46A" rx="2.202"/><rect width="193.769" height="4.404" x="450.111" y="364.417" fill="#A4C46A" rx="2.202"/><rect width="193.769" height="4.404" x="450.111" y="379.096" fill="#A4C46A" rx="2.202"/><rect width="171.016" height="4.404" x="488.277" y="416.529" fill="#A4C46A" rx="2.202"/><rect width="167.346" height="4.404" x="450.111" y="451.025" fill="#A4C46A" rx="2.202"/><rect width="162.208" height="4.404" x="450.111" y="393.775" fill="#A4C46A" rx="2.202"/><rect width="193.769" height="4.404" x="488.277" y="431.208" fill="#A4C46A" rx="2.202"/><rect width="38.167" height="4.404" x="585.164" y="335.059" fill="#01ADE2"/><rect width="38.167" height="4.404" x="487.544" y="379.096" fill="#01ADE2"/><rect width="38.167" height="4.404" x="550.667" y="431.208" fill="#01ADE2"/><rect width="193.769" height="4.404" x="450.111" y="465.706" fill="#A4C46A" rx="2.202"/><path stroke="#101820" stroke-width=".5" d="M435.434 320.377L435.434 398.178"/><path stroke="#101820" stroke-width=".5" d="M435.434 451.025L435.434 470.109"/><path stroke="#101820" stroke-width=".5" d="M469.059 416.529L469.059 435.613"/><g filter="url(#filter1_d_36_11570)"><rect width="480" height="312" x="100" y="45" fill="#fff" rx="11"/></g><circle cx="124.627" cy="66.342" r="5.118" fill="#D9D9D9"/><circle cx="145.485" cy="66.342" r="5.118" fill="#D9D9D9"/><circle cx="166.343" cy="66.342" r="5.118" fill="#D9D9D9"/><path fill="#101820" d="M580 87H342V357H569C575.075 357 580 352.075 580 346V87Z"/><path fill="#27323C" stroke="#000" stroke-miterlimit="10" stroke-width=".032" d="M478.401 124.751H380.189V142.149H478.401V124.751Z"/><path fill="#3D4B58" d="M541.258 124.751H508.52V142.149H541.258V124.751Z" opacity=".5"/><path fill="#3D4B58" d="M454.829 158.029H380.189V175.428H454.829V158.029Z" opacity=".5"/><path fill="#3D4B58" d="M541.254 158.029H478.401V175.428H541.254V158.029Z" opacity=".5"/><path fill="#01ADE2" d="M425.915 191.308H380.189V208.706H425.915V191.308Z"/><path fill="#A4C46A" d="M541.251 191.308H454.825V208.706H541.251V191.308Z"/><path fill="#3D4B58" d="M448.44 225H382V242.398H448.44V225Z" opacity=".5"/><path fill="#3D4B58" d="M543.068 225H480.215V242.398H543.068V225Z" opacity=".5"/><path fill="#54A09E" d="M434.348 258.264H382V275.662H434.348V258.264Z"/><path fill="#3D4B58" d="M543.062 258.264H448.438V275.662H543.062V258.264Z" opacity=".5"/><path fill="#3D4B58" d="M480.212 291.541H382V308.939H480.212V291.541Z" opacity=".5"/><path fill="#01ADE2" d="M543.072 291.541H514.848V308.939H543.072V291.541Z"/><path stroke="#54A09E" stroke-dasharray=".13 4" stroke-linecap="round" stroke-miterlimit="10" stroke-width="2.14" d="M193.48 180.598H214.057"/><path stroke="#54A09E" stroke-dasharray=".13 4" stroke-linecap="round" stroke-miterlimit="10" stroke-width="2.14" d="M193.48 226.705H309.727"/><path stroke="#54A09E" stroke-dasharray=".13 4" stroke-linecap="round" stroke-miterlimit="10" stroke-width="2.14" d="M193.48 154.02H309.727"/><path stroke="#54A09E" stroke-dasharray=".13 4" stroke-linecap="round" stroke-miterlimit="10" stroke-width="2.14" d="M193.48 126.197H309.727"/><path stroke="#54A09E" stroke-dasharray=".13 4" stroke-linecap="round" stroke-miterlimit="10" stroke-width="2.14" d="M193.477 254.598H260.882"/><path stroke="#54A09E" stroke-dasharray=".13 4" stroke-linecap="round" stroke-miterlimit="10" stroke-width="2.14" d="M193.48 282.346H309.727"/><path stroke="#54A09E" stroke-dasharray=".13 4" stroke-linecap="round" stroke-miterlimit="10" stroke-width="2.14" d="M193.477 313.699H275.367"/><path stroke="#CBCBCB" stroke-miterlimit="10" stroke-width=".5" d="M100 155H171"/><path stroke="#101820" stroke-miterlimit="10" stroke-width=".5" d="M171 357L171 87"/><path stroke="#101820" stroke-miterlimit="10" stroke-width=".5" d="M100.292 86.7818H580"/><g filter="url(#filter2_d_36_11570)"><rect width="126.968" height="126.968" x="488" y="20" fill="#fff" rx="17.181"/></g><g filter="url(#filter3_d_36_11570)"><rect width="126.968" height="126.968" x="488" y="20" fill="#fff" rx="7"/></g><rect width="127" height="43" x="488" y="104" fill="#D9D9D9" rx="7"/><rect width="126.624" height="82.388" x="488.172" y="35.359" fill="#fff" stroke="#D9D9D9" stroke-width=".344" rx="6.828"/><path fill="#54A09E" d="M551.486 78.7946C561.691 78.7946 569.964 70.5373 569.964 60.3514C569.964 50.1655 561.691 41.9082 551.486 41.9082C541.281 41.9082 533.008 50.1655 533.008 60.3514C533.008 70.5373 541.281 78.7946 551.486 78.7946Z"/><path fill="#54A09E" d="M582.421 117.814H520.547V113.658C520.547 96.5683 534.399 82.7129 551.484 82.7129C568.569 82.7129 582.421 96.5683 582.421 113.658V117.814Z"/><circle cx="496.855" cy="28.154" r="1.855" fill="#D9D9D9"/><circle cx="504.413" cy="28.154" r="1.855" fill="#D9D9D9"/><circle cx="511.972" cy="28.154" r="1.855" fill="#D9D9D9"/><path fill="#26323C" d="M512.741 127.553H498.309V137.346H512.741V127.553Z"/><path fill="#101820" d="M517.037 137.174L512.742 134.475V130.251L517.037 127.553V137.174Z"/><path fill="#01ADE2" d="M280.426 477.15C303.94 477.15 323.001 458.089 323.001 434.575C323.001 411.062 303.94 392 280.426 392C256.913 392 237.851 411.062 237.851 434.575C237.851 458.089 256.913 477.15 280.426 477.15Z"/><path fill="#fff" d="M279.187 431.728H283.894V445.905C283.894 447.76 283.725 449.184 283.383 450.181C282.922 451.49 282.093 452.537 280.898 453.326C279.698 454.114 278.115 454.511 276.146 454.511C273.844 454.511 272.063 453.891 270.823 452.651C269.583 451.416 268.958 449.601 268.943 447.21L273.393 446.723C273.447 448.008 273.646 448.911 273.983 449.437C274.494 450.245 275.268 450.647 276.31 450.647C277.356 450.647 278.1 450.359 278.537 449.779C278.973 449.209 279.187 448.008 279.187 446.198V431.728Z"/><path fill="#fff" d="M287.714 446.84L292.302 446.418C292.575 447.896 293.136 448.978 293.979 449.672C294.827 450.362 295.968 450.709 297.402 450.709C298.924 450.709 300.065 450.401 300.839 449.786C301.608 449.176 301.995 448.452 301.995 447.624C301.995 447.098 301.831 446.641 301.504 446.269C301.176 445.897 300.616 445.58 299.807 445.297C299.257 445.114 297.997 444.791 296.032 444.32C293.508 443.72 291.727 442.981 290.71 442.108C289.276 440.873 288.557 439.374 288.557 437.599C288.557 436.458 288.894 435.391 289.569 434.404C290.249 433.407 291.221 432.653 292.491 432.132C293.761 431.611 295.288 431.354 297.089 431.354C300.021 431.354 302.228 431.974 303.711 433.204C305.189 434.439 305.973 436.081 306.048 438.139L301.33 438.343C301.127 437.192 300.7 436.364 300.035 435.863C299.371 435.357 298.374 435.099 297.049 435.099C295.68 435.099 294.604 435.371 293.83 435.912C293.329 436.259 293.076 436.721 293.076 437.301C293.076 437.837 293.314 438.283 293.78 438.66C294.371 439.141 295.819 439.637 298.111 440.158C300.403 440.679 302.104 441.22 303.205 441.77C304.306 442.321 305.17 443.085 305.785 444.047C306.41 445.009 306.722 446.195 306.722 447.614C306.722 448.898 306.35 450.099 305.601 451.22C304.862 452.341 303.81 453.174 302.451 453.715C301.087 454.261 299.396 454.533 297.367 454.533C294.415 454.533 292.144 453.884 290.566 452.569C288.964 451.25 288.021 449.345 287.714 446.84Z"/><path fill="#54A09E" d="M164.501 477.15C188.014 477.15 207.076 458.089 207.076 434.575C207.076 411.062 188.014 392 164.501 392C140.987 392 121.926 411.062 121.926 434.575C121.926 458.089 140.987 477.15 164.501 477.15Z"/><path fill="#F2F2F2" d="M186.556 416.155V453.131C186.556 457.818 176.679 461.617 164.496 461.617C152.312 461.617 142.441 457.818 142.441 453.131V416.155"/><path fill="#fff" d="M164.45 424.723C176.606 424.723 186.46 420.92 186.46 416.23C186.46 411.539 176.606 407.736 164.45 407.736C152.294 407.736 142.439 411.539 142.439 416.23C142.439 420.92 152.294 424.723 164.45 424.723Z"/><path fill="#E6E6E5" d="M164.499 449.756C152.316 449.756 142.439 445.945 142.439 441.244V453.058C142.439 457.759 152.316 461.571 164.499 461.571C176.682 461.571 186.559 457.759 186.559 453.058V441.244C186.553 445.945 176.676 449.756 164.499 449.756Z"/><path fill="#54A09E" d="M154.462 434.176C154.404 433.635 154.169 433.212 153.755 432.909C153.341 432.605 152.785 432.453 152.085 432.453C151.61 432.453 151.205 432.524 150.87 432.664C150.536 432.801 150.28 432.988 150.104 433.226C149.933 433.463 149.845 433.732 149.84 434.031C149.836 434.286 149.891 434.509 150.005 434.698C150.124 434.883 150.285 435.043 150.487 435.18C150.694 435.312 150.93 435.426 151.194 435.523C151.458 435.615 151.735 435.695 152.026 435.761L153.253 436.058C153.821 436.185 154.349 436.357 154.838 436.573C155.326 436.788 155.753 437.055 156.119 437.372C156.484 437.688 156.768 438.065 156.97 438.5C157.177 438.936 157.283 439.44 157.287 440.012C157.283 440.826 157.074 441.537 156.66 442.145C156.246 442.747 155.65 443.216 154.871 443.551C154.096 443.881 153.161 444.046 152.065 444.046C150.987 444.046 150.047 443.881 149.246 443.551C148.45 443.221 147.827 442.732 147.378 442.085C146.933 441.434 146.698 440.631 146.672 439.675H149.345C149.376 440.133 149.51 440.514 149.748 440.818C149.986 441.121 150.302 441.35 150.699 441.504C151.095 441.654 151.541 441.729 152.039 441.729C152.536 441.729 152.97 441.656 153.339 441.511C153.709 441.366 153.995 441.163 154.197 440.903C154.404 440.644 154.51 440.342 154.514 439.999C154.51 439.682 154.415 439.418 154.231 439.207C154.05 438.991 153.786 438.811 153.438 438.665C153.091 438.516 152.673 438.382 152.184 438.263L150.692 437.886C149.561 437.605 148.665 437.171 148.005 436.586C147.349 435.996 147.024 435.206 147.028 434.216C147.024 433.402 147.242 432.691 147.682 432.084C148.126 431.476 148.731 431.003 149.497 430.664C150.263 430.321 151.134 430.149 152.111 430.149C153.106 430.149 153.973 430.321 154.712 430.664C155.456 431.003 156.037 431.476 156.455 432.084C156.873 432.686 157.089 433.384 157.102 434.176H154.462ZM163.798 439.194H166.168L167.416 440.798L168.551 442.125L170.809 444.977H168.215L166.663 443.056L165.904 441.973L163.798 439.194ZM171.047 437.094C171.047 438.564 170.77 439.816 170.215 440.851C169.66 441.885 168.908 442.675 167.957 443.221C167.007 443.766 165.935 444.039 164.742 444.039C163.545 444.039 162.471 443.766 161.521 443.221C160.574 442.67 159.824 441.878 159.269 440.844C158.719 439.81 158.444 438.56 158.444 437.094C158.444 435.624 158.719 434.372 159.269 433.338C159.824 432.304 160.574 431.514 161.521 430.968C162.471 430.422 163.545 430.149 164.742 430.149C165.935 430.149 167.007 430.422 167.957 430.968C168.908 431.514 169.66 432.304 170.215 433.338C170.77 434.372 171.047 435.624 171.047 437.094ZM168.261 437.094C168.261 436.122 168.113 435.301 167.819 434.632C167.528 433.963 167.119 433.457 166.591 433.113C166.063 432.766 165.446 432.592 164.742 432.592C164.042 432.592 163.428 432.766 162.9 433.113C162.372 433.457 161.961 433.963 161.666 434.632C161.375 435.301 161.23 436.122 161.23 437.094C161.23 438.067 161.375 438.888 161.666 439.557C161.961 440.226 162.372 440.734 162.9 441.082C163.428 441.425 164.042 441.597 164.742 441.597C165.446 441.597 166.063 441.425 166.591 441.082C167.119 440.734 167.528 440.226 167.819 439.557C168.113 438.888 168.261 438.067 168.261 437.094ZM172.674 443.854V430.334H175.427V441.577H181.263V443.854H172.674Z"/><path fill="#fff" d="M48.5047 462.519L22.9164 426.543C22.6821 426.216 22.7016 425.772 22.9603 425.464L28.1346 419.27L48.7683 424.434"/><path fill="#fff" d="M49.2976 414C48.8876 413.893 48.458 413.898 48.048 414.005L28.1318 419.272L48.5654 424.364L69.6629 419.272L49.2976 414Z"/><path fill="#E6E6E5" d="M48.5042 462.519L74.9419 426.353C75.02 426.245 75.02 426.099 74.937 425.996L69.6651 419.27L48.5627 424.361L48.5042 462.519Z"/><path fill="#F2F2F2" d="M24.9515 426.698L48.5922 433.527L48.5043 462.527L23.9898 428.059C23.5017 427.376 24.1509 426.463 24.9515 426.698Z"/><path fill="#CCCBCB" d="M74.2536 426.402L48.592 433.519L48.5042 462.52L74.5709 426.861C74.7369 426.636 74.5221 426.324 74.2536 426.402Z"/><path fill="#A4C46A" d="M48.5751 477.15C72.0886 477.15 91.1501 458.089 91.1501 434.575C91.1501 411.062 72.0886 392 48.5751 392C25.0615 392 6 411.062 6 434.575C6 458.089 25.0615 477.15 48.5751 477.15Z"/><path fill="#fff" d="M50.2882 456.056V437.946H70.5316V429.141C70.5267 425.852 67.8629 423.188 64.5742 423.183H59.3608V418.863C59.3559 415.49 56.6276 412.762 53.2546 412.757H43.1254C39.7524 412.762 37.0242 415.49 37.0192 418.863V424.617H31.9546C28.5816 424.622 25.8533 427.35 25.8484 430.723V441.056C25.8533 444.344 28.5171 447.008 31.8058 447.013H37.0192V451.334C37.0242 454.707 39.7524 457.435 43.1254 457.44H53.2546C54.7228 457.44 56.0671 456.919 57.1187 456.056H50.2882Z"/><path fill="#fff" d="M42.6106 420.948C43.638 420.948 44.4708 420.116 44.4708 419.088C44.4708 418.061 43.638 417.228 42.6106 417.228C41.5833 417.228 40.7505 418.061 40.7505 419.088C40.7505 420.116 41.5833 420.948 42.6106 420.948Z"/><path fill="#A4C46A" d="M42.5777 420.87C43.6132 420.87 44.4527 420.03 44.4527 418.995C44.4527 417.959 43.6132 417.12 42.5777 417.12C41.5421 417.12 40.7026 417.959 40.7026 418.995C40.7026 420.03 41.5421 420.87 42.5777 420.87Z"/><path fill="#A4C46A" d="M53.8086 449.336C52.7719 449.336 51.9336 450.174 51.9336 451.211C51.9336 452.247 52.7719 453.086 53.8086 453.086C54.8404 453.086 55.6787 452.247 55.6787 451.211C55.6787 450.174 54.8453 449.336 53.8086 449.336Z"/><path fill="#101820" d="M64.677 423.112H59.4338V423.107H59.3644V429.699C59.3594 432.264 57.286 434.342 54.7214 434.342H42.9554C39.6468 434.347 36.9682 437.026 36.9632 440.334V445.577H36.9583V447.075H36.9632V451.421C36.9682 454.814 39.7162 457.562 43.1042 457.562H53.2928C56.6858 457.557 59.4338 454.809 59.4338 451.421V445.592H64.5281C67.921 445.587 70.6691 442.839 70.6691 439.451V429.104C70.6641 425.795 67.9855 423.117 64.677 423.112ZM53.8137 453.077C52.777 453.077 51.9387 452.239 51.9387 451.202C51.9387 450.166 52.777 449.327 53.8137 449.327C54.8454 449.327 55.6838 450.166 55.6838 451.202C55.6838 452.239 54.8504 453.077 53.8137 453.077Z"/><path fill="#A4C46A" d="M47.4581 424.669H37.0264V423.191H47.4581C47.8648 423.191 48.1972 423.524 48.1972 423.93C48.1972 424.337 47.8648 424.669 47.4581 424.669Z"/><path fill="#A4C46A" d="M59.4481 447.078H49.0165C48.6097 447.078 48.2773 446.746 48.2773 446.339C48.2773 445.932 48.6097 445.6 49.0165 445.6H59.4481V447.078Z"/><defs><filter id="filter0_d_36_11570" width="344.942" height="268.609" x="378.527" y="254.534" color-interpolation-filters="sRGB" filterUnits="userSpaceOnUse"><feFlood flood-opacity="0" result="BackgroundImageFix"/><feColorMatrix in="SourceAlpha" result="hardAlpha" type="matrix" values="0 0 0 0 0 0 0 0 0 0 0 0 0 0 0 0 0 0 127 0"/><feMorphology in="SourceAlpha" operator="dilate" radius=".861" result="effect1_dropShadow_36_11570"/><feOffset dy="5.339"/><feGaussianBlur stdDeviation="9.472"/><feComposite in2="hardAlpha" operator="out"/><feColorMatrix type="matrix" values="0 0 0 0 0.0627451 0 0 0 0 0.0941176 0 0 0 0 0.12549 0 0 0 0.09 0"/><feBlend in2="BackgroundImageFix" mode="normal" result="effect1_dropShadow_36_11570"/><feBlend in="SourceGraphic" in2="effect1_dropShadow_36_11570" mode="normal" result="shape"/></filter><filter id="filter1_d_36_11570" width="509.059" height="341.059" x="85.471" y="34.387" color-interpolation-filters="sRGB" filterUnits="userSpaceOnUse"><feFlood flood-opacity="0" result="BackgroundImageFix"/><feColorMatrix in="SourceAlpha" result="hardAlpha" type="matrix" values="0 0 0 0 0 0 0 0 0 0 0 0 0 0 0 0 0 0 127 0"/><feMorphology in="SourceAlpha" operator="dilate" radius=".632" result="effect1_dropShadow_36_11570"/><feOffset dy="3.917"/><feGaussianBlur stdDeviation="6.949"/><feComposite in2="hardAlpha" operator="out"/><feColorMatrix type="matrix" values="0 0 0 0 0.0627451 0 0 0 0 0.0941176 0 0 0 0 0.12549 0 0 0 0.09 0"/><feBlend in2="BackgroundImageFix" mode="normal" result="effect1_dropShadow_36_11570"/><feBlend in="SourceGraphic" in2="effect1_dropShadow_36_11570" mode="normal" result="shape"/></filter><filter id="filter2_d_36_11570" width="166.484" height="166.484" x="468.242" y="5.568" color-interpolation-filters="sRGB" filterUnits="userSpaceOnUse"><feFlood flood-opacity="0" result="BackgroundImageFix"/><feColorMatrix in="SourceAlpha" result="hardAlpha" type="matrix" values="0 0 0 0 0 0 0 0 0 0 0 0 0 0 0 0 0 0 127 0"/><feMorphology in="SourceAlpha" operator="dilate" radius=".859" result="effect1_dropShadow_36_11570"/><feOffset dy="5.326"/><feGaussianBlur stdDeviation="9.45"/><feComposite in2="hardAlpha" operator="out"/><feColorMatrix type="matrix" values="0 0 0 0 0.0627451 0 0 0 0 0.0941176 0 0 0 0 0.12549 0 0 0 0.09 0"/><feBlend in2="BackgroundImageFix" mode="normal" result="effect1_dropShadow_36_11570"/><feBlend in="SourceGraphic" in2="effect1_dropShadow_36_11570" mode="normal" result="shape"/></filter><filter id="filter3_d_36_11570" width="166.484" height="166.484" x="468.242" y="5.568" color-interpolation-filters="sRGB" filterUnits="userSpaceOnUse"><feFlood flood-opacity="0" result="BackgroundImageFix"/><feColorMatrix in="SourceAlpha" result="hardAlpha" type="matrix" values="0 0 0 0 0 0 0 0 0 0 0 0 0 0 0 0 0 0 127 0"/><feMorphology in="SourceAlpha" operator="dilate" radius=".859" result="effect1_dropShadow_36_11570"/><feOffset dy="5.326"/><feGaussianBlur stdDeviation="9.45"/><feComposite in2="hardAlpha" operator="out"/><feColorMatrix type="matrix" values="0 0 0 0 0.0627451 0 0 0 0 0.0941176 0 0 0 0 0.12549 0 0 0 0.09 0"/><feBlend in2="BackgroundImageFix" mode="normal" result="effect1_dropShadow_36_11570"/><feBlend in="SourceGraphic" in2="effect1_dropShadow_36_11570" mode="normal" result="shape"/></filter></defs></svg>